<!-- SVG Favicon for AI Prompt Generator -->
<svg xmlns="http://www.w3.org/2000/svg" viewBox="0 0 100 100">
  <defs>
    <linearGradient id="grad1" x1="0%" y1="0%" x2="100%" y2="100%">
      <stop offset="0%" style="stop-color:#667eea;stop-opacity:1" />
      <stop offset="100%" style="stop-color:#764ba2;stop-opacity:1" />
    </linearGradient>
  </defs>
  
  <!-- Background circle -->
  <circle cx="50" cy="50" r="48" fill="url(#grad1)"/>
  
  <!-- AI brain icon -->
  <g fill="white">
    <!-- Brain outline -->
    <path d="M50 20c-16.5 0-30 13.5-30 30s13.5 30 30 30 30-13.5 30-30-13.5-30-30-30zm0 54c-13.2 0-24-10.8-24-24s10.8-24 24-24 24 10.8 24 24-10.8 24-24 24z" fill-opacity="0.3"/>
    
    <!-- Spark/magic wand representing AI generation -->
    <path d="M65 35l-8 8-4-4 8-8 4 4zm-12 12l-6 6-20 8 8-20 6-6 12 12z"/>
    
    <!-- Text cursor -->
    <rect x="32" y="55" width="36" height="3" rx="1.5"/>
    <rect x="32" y="62" width="24" height="3" rx="1.5"/>
    
    <!-- Sparkles -->
    <circle cx="70" cy="30" r="2"/>
    <circle cx="78" cy="38" r="1.5"/>
    <circle cx="75" cy="25" r="1"/>
  </g>
</svg>
